<?xml version="1.0" standalone="no"?>
<!DOCTYPE svg PUBLIC "-//W3C//DTD SVG 20010904//EN"
 "http://www.w3.org/TR/2001/REC-SVG-20010904/DTD/svg10.dtd">
<svg version="1.0" xmlns="http://www.w3.org/2000/svg"
 width="752.000000pt" height="752.000000pt" viewBox="0 0 752.000000 752.000000"
 preserveAspectRatio="xMidYMid meet">
<metadata>
Created by potrace 1.11, written by Peter Selinger 2001-2013
</metadata>
<g transform="translate(0.000000,752.000000) scale(0.100000,-0.100000)"
fill="#000000" stroke="none">
<path d="M730 5800 c-16 -16 -16 -22 -3 -71 28 -101 38 -93 -130 -94 -182 -1
-186 -3 -148 -107 11 -29 36 -99 55 -155 20 -57 51 -147 70 -200 19 -54 52
-150 74 -213 58 -166 165 -473 280 -800 55 -157 112 -319 126 -360 14 -41 32
-93 40 -115 22 -61 147 -417 156 -445 4 -14 34 -97 65 -185 95 -270 135 -388
131 -392 -5 -6 -42 -11 -126 -18 -72 -6 -110 -9 -210 -20 -25 -2 -81 -8 -125
-11 -44 -4 -91 -8 -105 -9 -14 -2 -35 -3 -48 -4 -23 -1 -23 -3 -18 -63 3 -35
8 -90 11 -123 3 -33 7 -82 10 -110 3 -27 7 -75 10 -105 10 -113 16 -176 20
-210 5 -39 14 -137 20 -220 3 -30 7 -75 10 -100 3 -25 7 -76 11 -115 3 -38 9
-108 15 -155 5 -47 9 -88 9 -93 0 -4 10 -5 23 -3 12 3 54 7 92 11 84 6 162 13
230 20 28 3 77 7 110 10 33 3 78 7 100 10 22 2 74 7 115 10 41 3 86 8 100 10
14 3 60 7 104 10 43 3 90 7 105 9 14 3 64 7 111 11 47 4 99 8 115 10 17 1 66
6 110 10 44 4 94 9 110 11 17 1 64 6 105 9 41 4 86 8 100 10 14 2 61 7 105 10
44 3 96 8 115 10 19 3 64 7 100 10 36 3 85 7 110 10 25 3 74 7 110 10 36 4 81
8 100 10 19 2 71 7 115 10 44 4 91 8 105 10 14 2 63 7 110 10 47 4 92 9 100
10 8 2 53 6 100 9 47 4 101 9 120 11 19 2 64 7 100 10 36 4 81 8 100 10 19 2
69 6 110 9 41 4 91 8 110 11 19 2 69 7 110 10 41 4 86 8 100 10 14 2 63 6 110
10 47 4 96 8 110 10 14 2 59 6 100 10 76 6 130 11 210 19 25 3 74 8 110 11
130 11 186 16 210 20 14 2 63 6 110 10 47 3 96 8 110 10 14 2 61 7 105 10 44
4 94 8 110 10 17 1 64 6 105 9 41 4 91 9 110 12 19 2 64 6 100 9 63 5 163 14
225 21 17 1 64 6 105 10 41 3 86 7 100 9 14 1 68 6 120 10 52 4 102 9 110 11
8 1 19 3 24 3 7 1 1 129 -9 195 -2 11 -6 61 -10 110 -4 50 -8 97 -10 105 -1 9
-6 57 -10 106 -9 100 -9 97 -19 210 -5 44 -10 100 -12 125 -4 49 -13 147 -19
195 -2 17 -7 70 -10 118 -4 47 -8 95 -9 104 -4 24 -40 24 -331 -2 -33 -3 -77
-8 -97 -10 -21 -3 -38 -3 -38 0 0 5 61 173 97 265 14 36 31 85 39 110 8 25 19
54 24 65 5 11 42 108 81 215 39 107 114 310 166 450 52 140 128 345 168 455
40 110 78 211 83 225 6 14 29 75 51 135 56 154 207 564 242 657 16 43 29 84
29 92 0 43 9 43 -714 43 -780 0 -700 11 -731 -97 -10 -36 -22 -70 -26 -76 -5
-6 -48 -10 -109 -9 -58 1 -107 -3 -116 -9 -7 -6 -32 -74 -55 -151 -92 -316
-131 -452 -139 -480 -5 -16 -23 -81 -41 -143 l-33 -113 -13 43 c-7 24 -15 52
-18 63 -2 11 -25 90 -51 175 -25 85 -49 169 -54 185 -11 45 -99 346 -109 375
-5 14 -21 69 -36 123 -17 58 -35 101 -44 106 -26 13 -1558 10 -1576 -3 -8 -6
-25 -47 -38 -91 l-23 -80 -112 0 c-127 0 -123 2 -146 -80 -69 -243 -206 -743
-207 -755 0 -26 -25 49 -68 205 -23 83 -64 231 -92 330 -28 99 -52 187 -54
195 -4 14 -23 85 -56 210 -22 84 65 77 -901 77 -803 0 -862 -1 -878 -17z
m1715 -135 c16 -63 82 -298 151 -540 14 -49 27 -99 30 -110 2 -11 26 -100 54
-198 l50 -177 -41 -148 c-22 -81 -42 -154 -45 -162 -28 -113 -38 -140 -44
-129 -4 8 -34 109 -65 224 -32 116 -73 264 -92 330 -19 66 -36 127 -38 135 -4
18 -19 73 -83 305 -28 99 -64 232 -82 295 -17 64 -39 122 -49 130 -15 13 -104
15 -688 15 l-671 0 -6 26 c-3 15 -8 37 -11 50 l-6 24 809 0 809 0 18 -70z
m2452 -150 c36 -121 68 -233 73 -250 4 -16 46 -162 94 -324 47 -161 88 -308
92 -325 5 -31 -8 -82 -95 -369 l-27 -88 -58 203 c-32 112 -65 223 -72 248 -15
48 -183 625 -189 650 -38 144 -106 356 -118 365 -9 7 -223 10 -641 10 -344 0
-626 3 -626 6 0 3 5 21 11 40 6 19 12 39 14 44 2 7 250 10 740 10 l738 0 64
-220z m2173 214 c0 -7 -252 -693 -275 -749 -8 -19 -41 -109 -74 -200 -33 -91
-117 -318 -186 -505 -70 -187 -130 -351 -135 -365 -4 -14 -38 -106 -75 -205
-37 -99 -92 -247 -122 -330 -112 -303 -103 -285 -137 -286 -17 0 -39 -2 -48
-4 -10 -2 -18 -2 -18 -1 0 4 93 269 155 441 25 72 76 213 112 315 123 350 235
665 255 720 11 30 62 174 113 320 51 146 114 324 140 395 121 336 119 330 92
350 -10 7 -196 10 -546 10 -292 0 -531 3 -531 8 0 4 5 27 11 50 l10 42 630 0
c346 0 629 -3 629 -6z m-3462 -1918 c21 -66 28 -100 22 -115 -5 -12 -64 -199
-131 -416 -67 -217 -126 -406 -132 -420 -9 -22 -17 -26 -66 -28 -31 -2 -65 -5
-75 -9 -15 -4 -18 -2 -12 13 4 11 9 26 11 34 2 8 14 49 28 90 13 41 89 281
168 534 107 344 145 453 150 435 4 -13 21 -66 37 -118z m96 -304 c11 -34 20
-67 21 -72 4 -15 100 -322 140 -442 18 -57 31 -103 27 -104 -4 0 -16 -2 -27
-4 -11 -3 -54 -7 -95 -10 -41 -3 -88 -8 -105 -10 -16 -2 -66 -7 -110 -10 -44
-4 -83 -9 -87 -11 -25 -15 -13 29 92 361 23 72 43 135 44 140 12 50 71 225 75
225 3 0 15 -28 25 -63z"/>
</g>
</svg>
