<svg height="504pt" viewBox="0 -48 504.00001 504" width="504pt" xmlns="http://www.w3.org/2000/svg"><path d="m497.699219 250.910156v21.769532c.003906 10.71875-8.0625 19.71875-18.71875 20.890624l-29.21875 3.199219v-69.949219l29.21875 3.207032c10.652343 1.164062 18.722656 10.164062 18.71875 20.882812zm0 0" fill="#fedb41"/><path d="m449.761719 296.769531v53.628907l-127.921875-44.859376v-84.679687l127.921875-44.859375zm0 0" fill="#00acea"/><path d="m321.839844 220.859375v84.679687h-65.898438c-5.804687 0-10.511718-4.707031-10.511718-10.511718v-63.660156c0-5.804688 4.707031-10.507813 10.511718-10.507813zm0 0" fill="#fedb41"/><path d="m306.789062 333.128906-12.867187 43.628906h-36.5v-71.21875h57.507813zm0 0" fill="#00acea"/><path d="m99.160156 267.867188c32.363282 28.003906 80.238282 28.488281 113.160156 1.140624l1.359376-1.140624h31.75v27.160156c0 5.804687 4.707031 10.511718 10.511718 10.511718h1.480469v71.21875h36.5l12.867187-43.628906v68.800782h-300.488281v-81.03125c-.003906-29.285157 23.734375-53.027344 53.019531-53.03125zm0 0" fill="#00efd1"/><path d="m113.238281 18.488281c6.1875-9.914062 18.132813-14.605469 29.410157-11.550781l29.820312 8.0625c11.984375 3.230469 24.511719 3.90625 36.769531 1.976562l65.113281-10.226562c0 22.1875-8.730468 45.5-27.480468 55.167969-2.054688 1.058593-4.195313 1.9375-6.402344 2.628906 0 0-64.410156 9.890625-105.707031 12.300781-5.710938.332032-10.980469.519532-15.582031.519532-5.5-.003907-9.953126-4.460938-9.960938-9.957032v-34.871094c-.019531-4.96875 1.375-9.84375 4.019531-14.050781zm0 0" fill="#4b5d63"/><path d="m213.679688 230.769531c-32.925782 28.070313-81.367188 28.066407-114.289063-.011719-21.042969-17.648437-33.222656-43.683593-33.289063-71.148437v-54.460937h.289063c10.257813 1.640624 38.320313 4.398437 68.378906-28.128907l-.007812-.171875c41.296875-2.410156 105.707031-12.300781 105.707031-12.300781 2.207031-.691406 4.347656-1.570313 6.402344-2.628906l.109375.210937v97.480469c-.078125 27.464844-12.261719 53.5-33.300781 71.160156zm5.089843-85.832031c0-14.566406-11.808593-26.378906-26.378906-26.378906s-26.378906 11.8125-26.378906 26.378906c0 14.570312 11.808593 26.382812 26.378906 26.382812s26.378906-11.8125 26.378906-26.382812zm-71.691406 0c.003906-14.570312-11.804687-26.386719-26.378906-26.390625-14.570313 0-26.386719 11.808594-26.390625 26.382813 0 14.570312 11.808594 26.386718 26.382812 26.390624 14.570313 0 26.382813-11.808593 26.386719-26.382812zm0 0" fill="#f7caa5"/><path d="m213.679688 230.769531v37.097657l-1.359376 1.140624c-32.921874 27.347657-80.796874 26.863282-113.160156-1.140624v-36.828126l.230469-.28125c32.921875 28.078126 81.363281 28.082032 114.289063.011719zm0 0" fill="#edb288"/><path d="m218.769531 144.9375c0 14.570312-11.808593 26.382812-26.378906 26.382812s-26.378906-11.8125-26.378906-26.382812c0-14.566406 11.808593-26.378906 26.378906-26.378906s26.378906 11.8125 26.378906 26.378906zm0 0" fill="#fedb41"/><path d="m120.691406 118.558594c14.566406 0 26.378906 11.8125 26.378906 26.378906 0 14.570312-11.8125 26.382812-26.378906 26.382812-14.570312 0-26.382812-11.8125-26.382812-26.382812.003906-14.566406 11.8125-26.375 26.382812-26.378906zm0 0" fill="#fedb41"/><path d="m134.761719 76.847656.007812.171875c-30.058593 32.527344-58.121093 29.769531-68.378906 28.128907h-.289063v-7.28125c.007813-33.089844 18.085938-63.535157 47.136719-79.378907-2.644531 4.207031-4.039062 9.082031-4.019531 14.050781v34.871094c.007812 5.496094 4.460938 9.953125 9.960938 9.957032 4.601562 0 9.871093-.1875 15.582031-.519532zm0 0" fill="#4b5d63"/><g fill="#083863"><path d="m152.847656 148.753906c2.34375-1.097656 5.054688-1.097656 7.398438 0 1.972656 16.566406 16.207031 28.917969 32.882812 28.539063 16.675782-.378907 30.332032-13.363281 31.550782-30s-10.402344-31.472657-26.847657-34.277344c-16.441406-2.800781-32.324219 7.347656-36.683593 23.445313-3.03125-.6875-6.171876-.6875-9.203126 0-4.363281-16.105469-20.25-26.261719-36.699218-23.457032-16.453125 2.800782-28.078125 17.648438-26.859375 34.289063 1.21875 16.644531 14.882812 29.636719 31.566406 30.015625s30.921875-11.984375 32.894531-28.554688zm39.542969-24.199218c11.253906 0 20.378906 9.125 20.378906 20.378906 0 11.257812-9.125 20.382812-20.378906 20.382812-11.257813 0-20.378906-9.125-20.378906-20.382812.011719-11.246094 9.128906-20.363282 20.378906-20.375zm-92.082031 20.378906c0-11.257813 9.125-20.386719 20.382812-20.386719 11.261719-.003906 20.390625 9.125 20.386719 20.386719 0 11.257812-9.128906 20.382812-20.386719 20.382812-11.25-.011718-20.367187-9.128906-20.382812-20.378906zm0 0"/><path d="m479.90625 224.070312-23.90625-2.628906v-45.441406c-.042969-1.964844-1.03125-3.785156-2.648438-4.894531-1.617187-1.113281-3.671874-1.378907-5.515624-.714844l-127.019532 44.578125h-64.875c-9.101562 0-16.941406 7.300781-16.941406 16.398438v30.601562h-19v-28.460938c1-1.578124 3.339844-3.210937 4.960938-4.875 18.035156-18.4375 28.105468-43.226562 28.039062-69.023437v-94.300781c14-8.792969 27.359375-28.109375 27.359375-58.558594 0-1.753906-.769531-3.421875-2.105469-4.558594-1.332031-1.140625-3.097656-1.640625-4.832031-1.367187l-65.113281 10.230469c-11.425782 1.808593-23.105469 1.179687-34.273438-1.847657l-29.820312-8.058593c-13.257813-3.628907-27.363282 1.507812-35.1875 12.808593-30.261719 17.101563-48.988282 49.152344-49.027344 83.910157v61.742187c.007812 28.136719 12.011719 54.9375 33 73.683594v28.675781h-33.679688c-32.542968 0-59.320312 26.378906-59.320312 58.929688v81.03125c.140625 3.375 2.917969 6.042968 6.300781 6.039062h300.488281c3.363282-.003906 6.113282-2.679688 6.210938-6.039062v-67.933594l6.414062-22.027344h1.402344l126.957032 44.308594c.640624.1875 1.3125.265625 1.984374.230468 1.285157-.019531 2.535157-.425781 3.589844-1.160156 1.621094-1.132812 2.605469-2.972656 2.652344-4.949218v-48.25l23.898438-2.613282c13.71875-1.480468 24.109374-13.0625 24.101562-26.855468v-21.769532c.003906-13.789062-10.386719-25.363281-24.09375-26.839844zm-228.90625 7.296876c0-2.484376 2.453125-4.398438 4.941406-4.398438h60.058594v73h-60.058594c-2.65625-.167969-4.773437-2.285156-4.941406-4.941406zm-146 11.101562c16 9.957031 33.453125 15.351562 51.621094 15.351562 18.066406 0 35.378906-5.335937 51.378906-15.191406v22.40625c-30.0625 24.214844-72.933594 24.21875-103 .011719zm13.324219-220.800781c3.722656-6.003907 10.28125-9.660157 17.34375-9.664063 1.828125.003906 3.652343.246094 5.417969.722656l29.820312 8.0625c12.792969 3.46875 26.175781 4.191407 39.265625 2.113282l57.882813-9.09375c-2 23.339844-13.746094 37.519531-23.929688 42.773437-1.621094.832031-3.304688 1.535157-5.035156 2.105469-5.925782.898438-65.96875 9.910156-104.675782 12.167969-5.855468.339843-10.980468.511719-15.234374.511719-1.082032 0-2.125-.414063-2.90625-1.164063-.777344-.730469-1.234376-1.734375-1.273438-2.800781v-34.863282c.023438-3.847656 1.136719-7.609374 3.207031-10.851562 0 0 .117188-.011719.117188-.019531zm-15.261719 10.773437c0 .03125-.0625.0625-.0625.097656v34.871094c.109375 8.832032 7.289062 15.941406 16.125 15.960938h.1875c-14.914062 12.265625-30.3125 17.769531-47.3125 16.421875v-1.925781c-.011719-25.371094 11.398438-49.398438 31.0625-65.425782zm-31.0625 127.167969v-47.789063c2 .105469 3.238281.167969 4.800781.167969 26.570313 0 47.289063-15.097656 60.867188-29.308593 39.457031-2.53125 98.332031-11.328126 103.332031-12.140626v89.070313c-.078125 25.695313-11.484375 50.054687-31.175781 66.566406-30.714844 26.195313-75.910157 26.191407-106.625-.007812-19.738281-16.472657-31.164063-40.847657-31.199219-66.558594zm229 236.359375h-289v-75.070312c0-25.929688 21.394531-46.929688 47.320312-46.929688h37.644532c34.527344 28.441406 84.363281 28.441406 118.894531 0h23.140625v21.058594c0 7.535156 6 13.894531 12 15.867187v65.863281c.179688 3.433594 2.980469 6.144532 6.421875 6.210938h36.5c2.703125-.039062 5.070313-1.820312 5.859375-4.40625l1.21875-3.886719zm-11.566406-25h-26.433594v-59h43.898438zm38.566406-69.683594v-76.171875l116-40.652343v157.476562zm164-28.605468c0 7.667968-5.777344 14.101562-13.398438 14.925781l-22.601562 2.46875v-56.558594l22.601562 2.476563c7.621094.820312 13.398438 7.25 13.398438 14.917968zm0 0"/></g></svg>