<svg height="471pt" viewBox="0 0 471.00021 471" width="471pt" xmlns="http://www.w3.org/2000/svg"><g fill="#fedb41"><path d="m234.5 98.5c-3.3125 0-6 2.6875-6 6v40c0 3.3125 2.6875 6 6 6s6-2.6875 6-6v-40c0-3.3125-2.6875-6-6-6zm0 0"/><path d="m366.5 229.5h-40c-3.3125 0-6 2.6875-6 6s2.6875 6 6 6h40c3.3125 0 6-2.6875 6-6s-2.6875-6-6-6zm0 0"/><path d="m150.5 236.5c0-3.3125-2.6875-6-6-6h-40c-3.3125 0-6 2.6875-6 6s2.6875 6 6 6h40c3.3125 0 6-2.6875 6-6zm0 0"/><path d="m299.421875 177.082031c1.589844 0 3.117187-.632812 4.238281-1.757812l28.632813-28.632813c2.289062-2.351562 2.261719-6.105468-.058594-8.425781s-6.074219-2.347656-8.425781-.058594l-28.628906 28.628907c-1.71875 1.71875-2.230469 4.296874-1.300782 6.539062.925782 2.242188 3.113282 3.703125 5.542969 3.707031zm0 0"/><path d="m167.117188 295.90625-28.628907 28.621094c-2.34375 2.34375-2.34375 6.140625 0 8.484375s6.140625 2.34375 8.484375 0l28.628906-28.617188c2.34375-2.34375 2.34375-6.144531.003907-8.488281-2.34375-2.34375-6.144531-2.34375-8.488281 0zm0 0"/><path d="m235.5 320.5c-3.3125 0-6 2.6875-6 6v40c0 3.3125 2.6875 6 6 6s6-2.6875 6-6v-40c0-3.3125-2.6875-6-6-6zm0 0"/><path d="m332.792969 324.027344-28.632813-28.628906c-1.507812-1.539063-3.730468-2.144532-5.8125-1.59375-2.082031.554687-3.710937 2.179687-4.261718 4.265624-.550782 2.082032.054687 4.300782 1.59375 5.8125l28.628906 28.628907c2.347656 2.3125 6.121094 2.296875 8.449218-.035157 2.332032-2.328124 2.34375-6.101562.035157-8.449218zm0 0"/><path d="m166.605469 175.820312c2.34375 2.34375 6.140625 2.347657 8.484375.003907s2.347656-6.140625.003906-8.484375l-28.621094-28.632813c-2.339844-2.34375-6.140625-2.34375-8.484375 0s-2.34375 6.140625 0 8.484375zm0 0"/></g><path d="m471 271.691406v6.089844h-66.691406v-6.089844c-.019532-7.5625 2.976562-14.820312 8.324218-20.167968 5.347657-5.347657 12.605469-8.34375 20.167969-8.324219h9.710938c7.5625-.019531 14.820312 2.976562 20.167969 8.324219 5.347656 5.347656 8.339843 12.605468 8.320312 20.167968zm0 0" fill="#00efd1"/><path d="m451.289062 198.820312c6.503907 6.472657 7.527344 16.640626 2.445313 24.28125-5.085937 7.640626-14.859375 10.625-23.34375 7.121094-8.484375-3.5-13.3125-12.507812-11.527344-21.511718 1.78125-9 9.679688-15.488282 18.855469-15.492188 5.089844-.007812 9.972656 2.003906 13.570312 5.601562zm0 0" fill="#00efd1"/><path d="m425.5 419.410156v6.089844h-66.691406v-6.089844c-.019532-7.5625 2.976562-14.820312 8.324218-20.164062 5.347657-5.347656 12.605469-8.339844 20.167969-8.316406h9.710938c7.558593-.023438 14.820312 2.96875 20.167969 8.316406 5.347656 5.34375 8.339843 12.601562 8.320312 20.164062zm0 0" fill="#00acea"/><path d="m425.5 123.96875v6.089844h-66.691406v-6.089844c-.019532-7.5625 2.972656-14.820312 8.320312-20.167969 5.347656-5.347656 12.609375-8.34375 20.171875-8.320312h9.710938c7.5625-.023438 14.820312 2.972656 20.167969 8.320312 5.347656 5.347657 8.34375 12.605469 8.320312 20.167969zm0 0" fill="#00acea"/><path d="m405.789062 51.101562c6.503907 6.472657 7.527344 16.640626 2.445313 24.28125-5.085937 7.640626-14.859375 10.621094-23.34375 7.121094s-13.3125-12.507812-11.527344-21.511718c1.78125-9.003907 9.679688-15.488282 18.855469-15.492188 5.089844-.011719 9.972656 2.003906 13.570312 5.601562zm0 0" fill="#00acea"/><path d="m405.789062 346.539062c6.503907 6.476563 7.527344 16.644532 2.445313 24.285157-5.085937 7.640625-14.859375 10.621093-23.34375 7.121093-8.484375-3.503906-13.3125-12.511718-11.527344-21.511718 1.78125-9.003906 9.679688-15.492188 18.855469-15.492188 5.089844-.011718 9.972656 2.003906 13.570312 5.597656zm0 0" fill="#00acea"/><path d="m235.5 148.460938c37.242188.003906 70.355469 23.695312 82.378906 58.941406 12.023438 35.246094.292969 74.234375-29.179687 96.996094l-.058594-.078126c.035156-12.050781-4.738281-23.617187-13.261719-32.140624-8.519531-8.523438-20.085937-13.292969-32.140625-13.257813h-15.476562c-12.054688-.035156-23.621094 4.734375-32.140625 13.257813-8.523438 8.523437-13.296875 20.089843-13.261719 32.140624l-.058594.078126c-29.472656-22.761719-41.203125-61.75-29.179687-96.996094 12.023437-35.246094 45.140625-58.9375 82.378906-58.941406zm30.648438 77.007812c-.023438-14.539062-10.3125-27.039062-24.578126-29.859375-14.261718-2.816406-28.535156 4.828125-34.085937 18.269531-5.554687 13.4375-.84375 28.925782 11.25 37 12.09375 8.074219 28.203125 6.484375 38.484375-3.796875 5.738281-5.730469 8.949219-13.507812 8.929688-21.613281zm0 0" fill="#00acea"/><path d="m288.640625 304.320312.058594.078126c-31.34375 24.1875-75.054688 24.1875-106.398438 0l.058594-.078126c-.035156-12.050781 4.738281-23.617187 13.261719-32.140624 8.519531-8.523438 20.085937-13.292969 32.140625-13.257813h15.476562c12.054688-.035156 23.621094 4.734375 32.140625 13.257813 8.523438 8.523437 13.296875 20.089843 13.261719 32.140624zm0 0" fill="#00efd1"/><path d="m268.839844 464.910156v6.089844h-66.679688v-6.089844c-.019531-7.558594 2.972656-14.816406 8.316406-20.160156 5.347657-5.347656 12.605469-8.339844 20.164063-8.320312h9.71875c7.5625-.019532 14.816406 2.972656 20.164063 8.320312 5.34375 5.34375 8.339843 12.601562 8.316406 20.160156zm0 0" fill="#00efd1"/><path d="m268.839844 78.46875v6.089844h-66.679688v-6.089844c-.023437-7.558594 2.96875-14.820312 8.3125-20.167969 5.347656-5.347656 12.605469-8.34375 20.167969-8.320312h9.71875c7.5625-.023438 14.820313 2.972656 20.167969 8.320312 5.34375 5.347657 8.335937 12.609375 8.3125 20.167969zm0 0" fill="#00efd1"/><path d="m257.21875 203.859375c10.359375 10.320313 11.984375 26.519531 3.878906 38.691406-8.105468 12.167969-23.679687 16.914063-37.195312 11.332031-13.511719-5.582031-21.199219-19.933593-18.355469-34.277343 2.847656-14.34375 15.429687-24.675781 30.054687-24.675781 8.105469-.023438 15.890626 3.191406 21.617188 8.929687zm0 0" fill="#00efd1"/><path d="m249.128906 5.601562c6.507813 6.472657 7.527344 16.640626 2.445313 24.28125-5.085938 7.640626-14.859375 10.621094-23.34375 7.121094s-13.3125-12.507812-11.527344-21.511718c1.78125-9.003907 9.679687-15.48828175 18.855469-15.492188 5.089844-.0117188 9.972656 2.003906 13.570312 5.601562zm0 0" fill="#00efd1"/><path d="m249.128906 392.039062c6.507813 6.476563 7.527344 16.644532 2.445313 24.285157-5.085938 7.640625-14.859375 10.621093-23.34375 7.121093-8.484375-3.503906-13.3125-12.511718-11.527344-21.511718 1.78125-9.003906 9.679687-15.492188 18.855469-15.492188 5.089844-.011718 9.972656 2.003906 13.570312 5.597656zm0 0" fill="#00efd1"/><path d="m112.191406 419.410156v6.089844h-66.691406v-6.089844c-.019531-7.5625 2.972656-14.820312 8.320312-20.164062 5.347657-5.347656 12.609376-8.339844 20.167969-8.316406h9.710938c7.5625-.023438 14.820312 2.96875 20.167969 8.316406 5.347656 5.34375 8.34375 12.601562 8.324218 20.164062zm0 0" fill="#00acea"/><path d="m112.191406 123.96875v6.089844h-66.691406v-6.089844c-.023438-7.5625 2.972656-14.820312 8.320312-20.167969 5.347657-5.347656 12.605469-8.34375 20.167969-8.320312h9.710938c7.5625-.023438 14.824219 2.972656 20.171875 8.320312 5.347656 5.347657 8.339844 12.605469 8.320312 20.167969zm0 0" fill="#00acea"/><path d="m92.46875 51.101562c6.507812 6.472657 7.527344 16.644532 2.441406 24.285157-5.085937 7.636719-14.863281 10.617187-23.34375 7.117187-8.484375-3.503906-13.308594-12.515625-11.523437-21.519531 1.789062-9 9.6875-15.488281 18.867187-15.484375 5.085938-.015625 9.96875 2 13.558594 5.601562zm0 0" fill="#00acea"/><path d="m92.46875 346.539062c6.507812 6.476563 7.527344 16.644532 2.441406 24.285157-5.085937 7.640625-14.863281 10.621093-23.34375 7.117187-8.484375-3.503906-13.308594-12.511718-11.523437-21.515625 1.789062-9.003906 9.6875-15.488281 18.867187-15.484375 5.085938-.015625 9.964844 2 13.558594 5.597656zm0 0" fill="#00acea"/><path d="m66.691406 271.691406v6.089844h-66.691406v-6.089844c-.0195312-7.5625 2.972656-14.820312 8.320312-20.167968 5.347657-5.347657 12.609376-8.34375 20.167969-8.324219h9.710938c7.5625-.019531 14.820312 2.976562 20.167969 8.324219 5.347656 5.347656 8.34375 12.605468 8.324218 20.167968zm0 0" fill="#00efd1"/><path d="m46.96875 198.820312c6.507812 6.476563 7.527344 16.644532 2.441406 24.285157-5.085937 7.640625-14.863281 10.621093-23.34375 7.117187-8.484375-3.503906-13.308594-12.515625-11.523437-21.515625 1.789062-9.003906 9.6875-15.488281 18.867187-15.488281 5.085938-.011719 9.964844 2.003906 13.558594 5.601562zm0 0" fill="#00efd1"/></svg>