<svg height="511pt" viewBox="-5 0 511 511.99796" width="511pt" xmlns="http://www.w3.org/2000/svg"><path d="m428.582031 415.621094c-.988281-5.941406-4.226562-11.132813-9.109375-14.617188l-208.507812-148.820312 208.402344-148.742188c10.101562-7.210937 12.453124-21.300781 5.242187-31.402344-7.210937-10.105468-21.296875-12.457031-31.402344-5.246093-252.90625 180.714843-236.554687 167.691406-240.125 173.398437-6.902343 10.574219-3.507812 25.644532 8.359375 31.964844l231.871094 165.496094c16.34375 11.664062 38.554688-2.378906 35.269531-22.03125zm0 0" fill="#0956c6"/><path d="m467.585938 158.371094c-13.414063 13.417968-30.050782 21.609375-47.417969 24.605468-27.335938 4.714844-56.460938-3.488281-77.566407-24.59375-20.882812-20.894531-29.136718-49.636718-24.703124-76.734374 2.863281-17.667969 11.09375-34.613282 24.722656-48.242188 13.609375-13.617188 30.574218-21.867188 48.261718-24.710938 9.71875-1.578124 19.640626-1.539062 29.347657.140626 17.335937 2.984374 33.960937 11.175781 47.355469 24.570312 34.503906 34.503906 34.503906 90.453125 0 124.964844zm0 0" fill="#5596fb"/><path d="m467.585938 478.574219c-13.414063 13.417969-30.050782 21.609375-47.417969 24.605469-27.335938 4.710937-56.460938-3.488282-77.566407-24.59375-20.882812-20.894532-29.136718-49.640626-24.703124-76.734376 2.863281-17.667968 11.09375-34.613281 24.722656-48.242187 13.609375-13.617187 30.574218-21.867187 48.261718-24.714844 9.71875-1.574219 19.640626-1.535156 29.347657.144531 17.335937 2.984376 33.960937 11.175782 47.355469 24.570313 34.503906 34.503906 34.503906 90.453125 0 124.964844zm0 0" fill="#5596fb"/><path d="m467.585938 158.371094c-13.414063 13.417968-30.050782 21.609375-47.417969 24.605468-17.363281-2.984374-34.007813-11.1875-47.414063-24.59375-20.886718-20.894531-29.136718-49.636718-24.707031-76.734374 2.867187-17.667969 11.097656-34.613282 24.726563-48.242188 13.394531-13.40625 30.058593-21.617188 47.457031-24.570312 17.335937 2.984374 33.960937 11.175781 47.355469 24.570312 34.503906 34.503906 34.503906 90.453125 0 124.964844zm0 0" fill="#97bffd"/><path d="m467.585938 478.574219c-13.414063 13.417969-30.050782 21.609375-47.417969 24.605469-17.363281-2.984376-34.007813-11.1875-47.414063-24.59375-20.886718-20.894532-29.136718-49.640626-24.707031-76.734376 2.867187-17.667968 11.097656-34.613281 24.726563-48.242187 13.394531-13.40625 30.058593-21.617187 47.457031-24.570313 17.335937 2.984376 33.960937 11.175782 47.355469 24.570313 34.503906 34.503906 34.503906 90.453125 0 124.964844zm0 0" fill="#97bffd"/><g fill="#fb5858"><path d="m434.441406 73.234375c0 16.210937-13.140625 29.351563-29.351562 29.351563-16.207032 0-29.347656-13.140626-29.347656-29.351563 0-16.207031 13.140624-29.351563 29.347656-29.351563 16.210937 0 29.351562 13.144532 29.351562 29.351563zm0 0"/><path d="m456.683594 167.628906c-14.519532 10.464844-32.324219 16.628906-51.597656 16.628906-19.257813 0-37.082032-6.164062-51.601563-16.648437 2.546875-36.492187 24.695313-65.023437 51.601563-65.023437 26.941406 0 49.054687 28.546874 51.597656 65.042968zm0 0"/><path d="m434.441406 393.4375c0 16.210938-13.140625 29.351562-29.351562 29.351562-16.207032 0-29.347656-13.140624-29.347656-29.351562s13.140624-29.351562 29.347656-29.351562c16.210937 0 29.351562 13.140624 29.351562 29.351562zm0 0"/><path d="m456.683594 487.828125c-14.519532 10.46875-32.324219 16.632813-51.597656 16.632813-19.257813 0-37.082032-6.164063-51.601563-16.648438 2.546875-36.496094 24.695313-65.023438 51.601563-65.023438 26.941406 0 49.054687 28.546876 51.597656 65.039063zm0 0"/></g><path d="m372.753906 158.382812c13.40625 13.40625 30.039063 21.609376 47.40625 24.59375-4.894531.84375-9.929687 1.285157-15.074218 1.285157-19.257813 0-37.078126-6.171875-51.601563-16.652344.664063-9.527344 2.664063-18.523437 5.75-26.605469 3.679687 6.203125 8.191406 12.042969 13.519531 17.378906zm0 0" fill="#c42d2d"/><path d="m372.753906 478.585938c13.40625 13.40625 30.039063 21.609374 47.40625 24.59375-4.894531.84375-9.929687 1.285156-15.074218 1.285156-19.257813 0-37.078126-6.171875-51.601563-16.652344.664063-9.527344 2.664063-18.523438 5.75-26.605469 3.679687 6.203125 8.191406 12.042969 13.519531 17.378907zm0 0" fill="#c42d2d"/><path d="m184.792969 256.101562c0 29.546876-14.503907 55.710938-36.796875 71.730469-10.640625 7.675781-23.042969 13.035157-36.511719 15.347657-4.894531.84375-9.941406 1.285156-15.085937 1.285156-19.246094 0-37.074219-6.160156-51.597657-16.652344-22.261719-16.023438-36.765625-42.164062-36.765625-71.710938 0-48.804687 39.570313-88.363281 88.363282-88.363281 5.144531 0 10.179687.445313 15.085937 1.289063 41.636719 7.144531 73.308594 43.417968 73.308594 87.074218zm0 0" fill="#5596fb"/><path d="m184.792969 256.101562c0 29.546876-14.503907 55.710938-36.796875 71.730469-10.640625 7.675781-23.042969 13.035157-36.511719 15.347657-13.457031-2.3125-25.890625-7.679688-36.53125-15.367188-22.261719-16.023438-36.765625-42.164062-36.765625-71.710938 0-43.667968 31.679688-79.929687 73.296875-87.074218 41.636719 7.144531 73.308594 43.417968 73.308594 87.074218zm0 0" fill="#97bffd"/><path d="m125.761719 233.445312c0 16.207032-13.140625 29.347657-29.351563 29.347657-16.210937 0-29.351562-13.140625-29.351562-29.347657 0-16.210937 13.140625-29.351562 29.351562-29.351562 16.210938 0 29.351563 13.140625 29.351563 29.351562zm0 0" fill="#0956c6"/><path d="m148 327.835938c-14.515625 10.46875-32.324219 16.632812-51.597656 16.632812-19.253906 0-37.078125-6.164062-51.597656-16.652344 2.542968-36.492187 24.695312-65.023437 51.597656-65.023437 26.945312 0 49.054687 28.550781 51.597656 65.042969zm0 0" fill="#0956c6"/><path d="m74.953125 327.8125c10.640625 7.6875 23.074219 13.054688 36.53125 15.367188-4.894531.84375-9.941406 1.285156-15.085937 1.285156-19.246094 0-37.074219-6.160156-51.597657-16.652344.664063-9.539062 2.671875-18.542969 5.75-26.625 6.21875 10.460938 14.550781 19.539062 24.402344 26.625zm0 0" fill="#0a4499"/><path d="m346.84375 339.902344-122.90625-87.71875 117.941406-84.171875c34.011719 29.945312 84.703125 31.792969 120.785156 4.59375l1.832032-1.316407-.007813-.089843c2.929688-2.320313 5.742188-4.816407 8.425781-7.5 17.636719-17.628907 27.597657-41.078125 28.070313-66 .082031-4.160157-3.234375-7.597657-7.398437-7.679688-4.140626-.101562-7.597657 3.234375-7.675782 7.398438-.394531 20.996093-8.789062 40.75-23.644531 55.601562-4.847656-23.410156-17.316406-42.144531-33.542969-51.484375 26.511719-22.175781 10.515625-65.1875-23.628906-65.1875-20.339844 0-36.890625 16.546875-36.890625 36.886719 0 11.351563 5.160156 21.519531 13.25 28.292969-16.230469 9.339844-28.707031 28.074218-33.550781 51.492187-50.742188-50.804687-14.546875-137.945312 57.253906-137.945312 35.902344 0 66.023438 23.324219 76.632812 55.207031 1.316407 3.949219 5.578126 6.082031 9.527344 4.765625 3.949219-1.316406 6.089844-5.578125 4.773438-9.527344-12.542969-37.625-48.070313-65.519531-90.933594-65.519531-61.246094 0-106.542969 56.367188-93.863281 116.011719-38.355469 27.359375-121.835938 86.8125-131.105469 93.445312-31.015625-55.5-105.402344-65.679687-150.3125-22.429687-3.003906 2.894531-3.085938 7.667968-.199219 10.664062 2.882813 2.992188 7.65625 3.082032 10.652344.199219 15.136719-14.582031 35.054687-22.613281 56.070313-22.613281 71.261718 0 108.324218 86.667968 57.179687 137.9375-4.847656-23.40625-17.316406-42.132813-33.539063-51.472656 8.097657-6.773438 13.257813-16.941407 13.257813-28.296876 0-20.339843-16.546875-36.890624-36.886719-36.890624s-36.890625 16.546874-36.890625 36.890624c0 11.351563 5.160157 21.519532 13.253907 28.289063-16.226563 9.335937-28.699219 28.058594-33.546876 51.457031-14.984374-15.03125-23.652343-35.574218-23.652343-57.089844 0-12.691406 2.855469-24.84375 8.492187-36.101562 1.859375-3.726562.351563-8.25-3.367187-10.121094-3.726563-1.859375-8.25-.351562-10.109375 3.378906-6.695313 13.375-10.089844 27.789063-10.089844 42.84375 0 29.335938 13.574219 57.152344 36.5 75.253907l-.007812.117187 3.398437 2.453125c33.125 23.929688 78.347656 24.300781 112.019531.023438l3.402344-2.453125-.007812-.125c11.777343-9.289063 21.097656-21.144532 27.367187-34.445313l55.570313 39.65625c3.4375 2.449219 8.121093 1.601563 10.511718-1.757812 2.421875-3.386719 1.628906-8.089844-1.757812-10.511719l-58.847656-42c5.5625-19.460938 4.773437-40.082031-2.058594-58.894531 20.03125-14.363281 46.929687-33.417969 129.296875-92.160157 3.679687 9.304688 8.835937 18.007813 15.355469 25.828126l-124.652344 88.964843c-4.203125 2.988281-4.226563 9.246094 0 12.269531l128.785156 91.921876c-6.984375 7.386718-12.675781 15.699218-16.945312 24.703124l-46.390626-33.113281c-3.390624-2.425781-8.101562-1.628906-10.515624 1.757813-2.421876 3.386718-1.636719 8.089844 1.761718 10.511718l49.648438 35.4375c-10.535156 36.558594 1.519531 77.136719 32.746094 101.824219l-.003907.101563c6.597657 4.433594 25.925781 20.53125 59.40625 20.53125 35.617188 0 57.578125-19.5625 59.410157-20.507813l-.007813-.121093c45.277344-35.769532 48.769531-102.753907 8.429687-143.09375-33.769531-33.769532-87.9375-37.648438-126.070312-8.371094zm58.246094-288.480469c12.03125 0 21.816406 9.785156 21.816406 21.8125 0 12.03125-9.785156 21.8125-21.816406 21.8125-12.027344 0-21.8125-9.78125-21.8125-21.8125 0-12.027344 9.785156-21.8125 21.8125-21.8125zm-.003906 58.703125c21.460937 0 40.101562 23.300781 43.679687 53.78125-26.476563 17.078125-60.863281 17.105469-87.363281-.015625 3.574218-30.476563 22.21875-53.765625 43.683594-53.765625zm-308.675782 101.507812c12.027344 0 21.8125 9.785157 21.8125 21.8125 0 12.027344-9.785156 21.8125-21.8125 21.8125s-21.8125-9.785156-21.8125-21.8125c0-12.027343 9.785156-21.8125 21.8125-21.8125zm-43.6875 112.457032c3.578125-30.472656 22.21875-53.757813 43.679688-53.757813 21.460937 0 40.097656 23.292969 43.679687 53.769531-26.796875 17.28125-61.113281 16.9375-87.359375-.011718zm308.679688 160.003906c3.574218-30.472656 22.21875-53.765625 43.683594-53.765625 21.457031 0 40.097656 23.292969 43.679687 53.765625-27.511719 17.679688-61.953125 16.417969-87.363281 0zm21.875-90.65625c0-12.027344 9.785156-21.8125 21.8125-21.8125 12.03125 0 21.816406 9.785156 21.816406 21.8125s-9.785156 21.8125-21.816406 21.8125c-12.027344 0-21.8125-9.785156-21.8125-21.8125zm78.984375 79.785156c-4.84375-23.410156-17.316407-42.144531-33.539063-51.484375 26.507813-22.175781 10.511719-65.1875-23.632812-65.1875-34.148438 0-50.132813 43.007813-23.636719 65.179688-16.230469 9.339843-28.707031 28.078125-33.550781 51.492187-18.316406-18.339844-26.757813-44.5625-22.566406-70.164062 10.472656-65.238282 90.746093-90.316406 136.914062-44.121094 31.511719 31.511719 31.515625 82.777344.011719 114.285156zm0 0"/></svg>