<svg height="496pt" viewBox="0 -32 496 496" width="496pt" xmlns="http://www.w3.org/2000/svg"><path d="m128 288h32v96h-32zm0 0" fill="#ccd1d9"/><path d="m336 288h32v96h-32zm0 0" fill="#ccd1d9"/><path d="m424 424h-352v-16c0-17.671875 14.328125-32 32-32h288c17.671875 0 32 14.328125 32 32zm0 0" fill="#cf9e76"/><path d="m8 8h480v288h-480zm0 0" fill="#48cfad"/><path d="m40 40h416v224h-416zm0 0" fill="#e6e9ed"/><path d="m144 40h208v32h-208zm0 0" fill="#fcd770"/><path d="m88 168h144v64h-144zm0 0" fill="#ff826e"/><path d="m264 168h144v64h-144zm0 0" fill="#48cfad"/><path d="m112 104h96v32h-96zm0 0" fill="#ff826e"/><path d="m288 104h96v32h-96zm0 0" fill="#48cfad"/><g fill="#aab2bd"><path d="m128 296h32v16h-32zm0 0"/><path d="m336 296h32v16h-32zm0 0"/><path d="m336 360h32v16h-32zm0 0"/><path d="m128 360h32v16h-32zm0 0"/></g><path d="m496 304v-304h-496v304h120v64h-16c-22.054688 0-40 17.945312-40 40v24h368v-24c0-22.054688-17.945312-40-40-40h-16v-64zm-480-288h464v272h-464zm152 352v-64h160v64zm-32-64h16v64h-16zm280 104v8h-336v-8c0-13.230469 10.769531-24 24-24h288c13.230469 0 24 10.769531 24 24zm-56-40h-16v-64h16zm0 0"/><path d="m32 272h432v-240h-432zm120-224h192v16h-192zm-104 0h88v32h224v-32h88v208h-400zm0 0"/><path d="m80 240h160v-80h-160zm16-64h128v48h-128zm0 0"/><path d="m256 240h160v-80h-160zm16-64h128v48h-128zm0 0"/><path d="m216 96h-112v48h112zm-16 32h-80v-16h80zm0 0"/><path d="m392 96h-112v48h112zm-16 32h-80v-16h80zm0 0"/></svg>