<?xml version="1.0" encoding="iso-8859-1"?>
<!-- Generator: Adobe Illustrator 19.0.0, SVG Export Plug-In . SVG Version: 6.00 Build 0)  -->
<svg version="1.1" id="Capa_1" xmlns="http://www.w3.org/2000/svg" xmlns:xlink="http://www.w3.org/1999/xlink" x="0px" y="0px"
	 viewBox="0 0 470.204 470.204" style="enable-background:new 0 0 470.204 470.204;" xml:space="preserve">
<g>
	<g>
		<path style="fill:#D4E1F4;" d="M367.804,428.408c0.869,16.424-11.741,30.442-28.165,31.311c-0.712,0.038-1.424,0.05-2.137,0.036
			H133.747c-17.312,0-31.347-14.035-31.347-31.347v-54.335h265.404V428.408z"/>
		<path style="fill:#00ACEA;" d="M367.804,82.024v292.049H102.4V82.024H367.804z M324.963,223.608
			c0.003-13.071-10.442-23.748-23.51-24.033h-4.18v-44.408l-89.861,35.527h-44.408c-9.81,0-17.763,7.953-17.763,17.763l0,0v31.869
			c-0.027,7.705,4.779,14.599,12.016,17.241l0,0l12.016,44.408c0.963,3.614,3.187,6.764,6.269,8.882
			c2.945,2.409,6.645,3.703,10.449,3.657c9.522,0.073,17.299-7.587,17.372-17.109c0.012-1.634-0.207-3.262-0.653-4.834
			l-9.404-34.482h14.106l89.861,36.049v-47.02h4.18c6.266,0.109,12.304-2.344,16.718-6.792
			C322.521,235.848,324.957,229.852,324.963,223.608z"/>
		<path style="fill:#D4E1F4;" d="M367.804,41.796v40.229H102.4V41.796c0-17.312,14.035-31.347,31.347-31.347h202.71
			C353.77,10.449,367.804,24.483,367.804,41.796z"/>
		<g>
			<path style="fill:#00EFD1;" d="M301.453,199.576c13.068,0.284,23.513,10.961,23.51,24.033
				c-0.006,6.243-2.442,12.239-6.792,16.718c-4.414,4.448-10.453,6.901-16.718,6.792h-4.18v-47.543H301.453z"/>
			<polygon style="fill:#00EFD1;" points="297.273,247.118 297.273,294.139 207.412,258.612 207.412,190.694 297.273,155.167 
				297.273,199.576 			"/>
			<path style="fill:#00EFD1;" d="M207.412,190.694v67.396h-50.155c-7.422-2.704-12.268-9.868-12.016-17.763v-31.869
				c0-9.81,7.953-17.763,17.763-17.763h0H207.412z"/>
			<path style="fill:#00EFD1;" d="M202.71,293.094c2.597,9.161-2.724,18.693-11.885,21.29c-1.572,0.446-3.2,0.666-4.834,0.653
				c-3.804,0.046-7.504-1.249-10.449-3.657c-3.083-2.118-5.306-5.268-6.269-8.882l-12.016-44.408h36.049L202.71,293.094z"/>
		</g>
	</g>
	<g>
		<path style="fill:#083863;" d="M336.98,470.204H133.224c-23.083,0-41.796-18.713-41.796-41.796V41.796
			C91.429,18.713,110.141,0,133.224,0H336.98c23.083,0,41.796,18.713,41.796,41.796v386.612
			C378.776,451.491,360.063,470.204,336.98,470.204z M133.224,20.898c-11.542,0-20.898,9.356-20.898,20.898v386.612
			c0,11.542,9.356,20.898,20.898,20.898H336.98c5.694,0.061,11.166-2.203,15.151-6.269c3.667-3.782,5.727-8.838,5.747-14.106V41.796
			c0-11.542-9.356-20.898-20.898-20.898H133.224z"/>
		<polygon style="fill:#083863;" points="368.327,92.473 102.4,92.473 102.4,71.576 368.327,71.576 		"/>
		<polygon style="fill:#083863;" points="368.327,384.522 102.4,384.522 102.4,363.624 368.327,363.624 		"/>
		<path style="fill:#083863;" d="M258.612,426.841h-47.02c-5.771,0-10.449-4.678-10.449-10.449s4.678-10.449,10.449-10.449h47.02
			c5.771,0,10.449,4.678,10.449,10.449S264.383,426.841,258.612,426.841z"/>
		<path style="fill:#083863;" d="M335.935,223.608c-0.128-16.411-11.64-30.53-27.69-33.959v-34.482
			c-0.156-3.645-2.115-6.974-5.224-8.882c-3.202-1.421-6.891-1.227-9.927,0.522l-87.249,36.049h-42.841
			c-14.112-0.869-26.256,9.866-27.125,23.978c-0.044,0.714-0.058,1.429-0.042,2.145v31.347c-0.099,9.603,4.606,18.62,12.539,24.033
			l10.971,40.751c1.656,5.814,5.136,10.942,9.927,14.629c4.847,3.594,10.686,5.601,16.718,5.747
			c8.77-0.037,17.044-4.077,22.465-10.971c5.144-6.878,6.874-15.724,4.702-24.033l-5.747-20.898l85.682,33.959l4.18,1.045
			c2.103,0.006,4.139-0.735,5.747-2.09c3.179-1.577,5.2-4.81,5.224-8.359v-37.094c6.713-1.331,12.889-4.6,17.763-9.404
			C332.528,241.368,336.127,232.654,335.935,223.608z M156.735,208.98c0-4.18,2.09-5.224,6.269-5.224h35.527v41.796h-35.527
			c-1.045,0-1.045,1.045-1.567,1.045c-2.841-0.732-4.795-3.337-4.702-6.269V208.98z M191.739,301.975
			c-1.501,1.588-3.563,2.526-5.747,2.612c-1.558,0.129-3.091-0.446-4.18-1.567c-1.045-0.522-2.09-3.135-2.612-4.702l-8.359-31.869
			h14.629l7.314,28.212C193.338,297.145,192.966,299.746,191.739,301.975z M287.347,278.465l-67.918-27.167v-53.29l67.918-27.69
			V278.465z M311.38,233.012c-1.045,1.045-3.135,1.567-3.135,2.09v-23.51c4.773,2.011,7.72,6.853,7.314,12.016
			C315.512,227.183,314.001,230.582,311.38,233.012z"/>
	</g>
</g>
<g>
</g>
<g>
</g>
<g>
</g>
<g>
</g>
<g>
</g>
<g>
</g>
<g>
</g>
<g>
</g>
<g>
</g>
<g>
</g>
<g>
</g>
<g>
</g>
<g>
</g>
<g>
</g>
<g>
</g>
</svg>
