<svg height="511pt" viewBox="-51 0 511 511.984" width="511pt" xmlns="http://www.w3.org/2000/svg"><path d="m112.492188 415.992188 8 24h-72l8-24zm0 0" fill="#ed5565"/><path d="m56.492188 439.992188h56v32h-56zm0 0" fill="#fff"/><path d="m56.492188 319.992188h56v32h-56zm0 0" fill="#fff"/><path d="m112.492188 295.992188 8 24h-72l8-24zm0 0" fill="#ed5565"/><path d="m136.492188 112.070312h32v112h-32zm0 0" fill="#967adc"/><path d="m104.492188 112.070312h32v112h-88v-112zm0 0" fill="#ac92ec"/><path d="m8.492188 39.992188v464h392v-464zm104 400v32h-56v-32h-8l8-24h56l8 24zm0-120v32h-56v-32h-8l8-24h56l8 24zm56-95.921876h-120v-112h120zm0 0" fill="#e6e9ed"/><path d="m376.46875 39.992188h24.023438v464h-24.023438zm0 0" fill="#ccd1d9"/><path d="m400.492188 23.992188v16h-392v-16c0-8.800782 7.128906-16 16-16h360c8.878906 0 16 7.199218 16 16zm0 0" fill="#ac92ec"/><path d="m384.492188 7.992188h-24.023438c8.878906 0 16 7.199218 16 16v16h24.023438v-16c0-8.800782-7.121094-16-16-16zm0 0" fill="#967adc"/><path d="m8.492188 32c-4.425782 0-8-3.574219-8-8 0-13.230469 10.769531-24 24-24 4.421874 0 8 3.574219 8 8s-3.578126 8-8 8c-4.417969 0-8 3.585938-8 8 0 4.425781-3.578126 8-8 8zm0 0"/><path d="m400.492188 32c-4.425782 0-8-3.574219-8-8 0-4.414062-3.585938-8-8-8-4.425782 0-8-3.574219-8-8s3.574218-8 8-8c13.230468 0 24 10.769531 24 24 0 4.425781-3.578126 8-8 8zm0 0"/><path d="m384.492188 16h-360c-4.425782 0-8-3.574219-8-8s3.574218-8 8-8h360c4.421874 0 8 3.574219 8 8s-3.578126 8-8 8zm0 0"/><path d="m400.492188 48c-4.425782 0-8-3.574219-8-8v-16c0-4.425781 3.574218-8 8-8 4.421874 0 8 3.574219 8 8v16c0 4.425781-3.578126 8-8 8zm0 0"/><path d="m8.492188 48c-4.425782 0-8-3.574219-8-8v-16c0-4.425781 3.574218-8 8-8 4.421874 0 8 3.574219 8 8v16c0 4.425781-3.578126 8-8 8zm0 0"/><path d="m400.492188 48h-392c-4.425782 0-8-3.574219-8-8s3.574218-8 8-8h392c4.421874 0 8 3.574219 8 8s-3.578126 8-8 8zm0 0"/><path d="m32.730469 32c-4.421875 0-8.039063-3.574219-8.039063-8s3.535156-8 7.953125-8h.085938c4.417969 0 8 3.574219 8 8s-3.582031 8-8 8zm0 0"/><path d="m56.730469 32c-4.421875 0-8.039063-3.574219-8.039063-8s3.535156-8 7.953125-8h.085938c4.417969 0 8 3.574219 8 8s-3.582031 8-8 8zm0 0"/><path d="m80.746094 32c-4.421875 0-8.039063-3.574219-8.039063-8s3.535157-8 7.953125-8h.085938c4.417968 0 8 3.574219 8 8s-3.582032 8-8 8zm0 0"/><path d="m8.492188 511.984375c-4.425782 0-8-3.578125-8-8v-463.984375c0-4.425781 3.574218-8 8-8 4.421874 0 8 3.574219 8 8v463.984375c0 4.421875-3.578126 8-8 8zm0 0"/><path d="m400.492188 511.984375c-4.425782 0-8-3.578125-8-8v-463.984375c0-4.425781 3.574218-8 8-8 4.421874 0 8 3.574219 8 8v463.984375c0 4.421875-3.578126 8-8 8zm0 0"/><path d="m400.492188 511.984375h-392c-4.425782 0-8-3.578125-8-8 0-4.425781 3.574218-8 8-8h392c4.421874 0 8 3.574219 8 8 0 4.421875-3.578126 8-8 8zm0 0"/><path d="m168.492188 232.0625h-120c-4.425782 0-8-3.574219-8-8v-112.015625c0-4.421875 3.574218-8 8-8h120c4.421874 0 8 3.578125 8 8v112.015625c0 4.425781-3.578126 8-8 8zm-112-16h104v-96.015625h-104zm0 0"/><path d="m136.492188 232.0625c-4.425782 0-8-3.574219-8-8v-128.03125c0-4.421875 3.574218-8 8-8 4.421874 0 8 3.578125 8 8v128.03125c0 4.425781-3.578126 8-8 8zm0 0"/><path d="m104.492188 104.03125c-4.425782 0-8-3.574219-8-8 0-4.414062-3.585938-8-8-8-4.417969 0-8 3.585938-8 8 0 4.425781-3.578126 8-8 8-4.425782 0-8-3.574219-8-8 0-13.230469 10.769531-24 24-24 13.230468 0 24 10.769531 24 24 0 4.425781-3.578126 8-8 8zm0 0"/><path d="m72.492188 128.03125c-4.425782 0-8-3.574219-8-8v-24c0-4.421875 3.574218-8 8-8 4.421874 0 8 3.578125 8 8v24c0 4.425781-3.578126 8-8 8zm0 0"/><path d="m104.492188 128.03125c-4.425782 0-8-3.574219-8-8v-24c0-4.421875 3.574218-8 8-8 4.421874 0 8 3.578125 8 8v24c0 4.425781-3.578126 8-8 8zm0 0"/><path d="m136.492188 104.03125c-4.425782 0-8-3.574219-8-8 0-4.414062-3.585938-8-8-8-4.417969 0-8 3.585938-8 8 0 4.425781-3.578126 8-8 8-4.425782 0-8-3.574219-8-8 0-13.230469 10.769531-24 24-24 13.230468 0 24 10.769531 24 24 0 4.425781-3.578126 8-8 8zm0 0"/><path d="m360.492188 128.054688h-152.015626c-4.425781 0-8-3.574219-8-8 0-4.421876 3.574219-8 8-8h152.015626c4.421874 0 8 3.578124 8 8 0 4.425781-3.578126 8-8 8zm0 0"/><path d="m360.492188 160.039062h-152.015626c-4.425781 0-8-3.574218-8-8 0-4.421874 3.574219-8 8-8h152.015626c4.421874 0 8 3.578126 8 8 0 4.425782-3.578126 8-8 8zm0 0"/><path d="m360.554688 192.039062h-152.078126c-4.425781 0-8-3.574218-8-8 0-4.421874 3.574219-8 8-8h152.078126c4.425781 0 8 3.578126 8 8 0 4.425782-3.574219 8-8 8zm0 0"/><path d="m56.492188 360.007812c-4.425782 0-8-3.574218-8-8v-32c0-4.421874 3.574218-8 8-8 4.421874 0 8 3.578126 8 8v32c0 4.425782-3.578126 8-8 8zm0 0"/><path d="m112.492188 360.007812c-4.425782 0-8-3.574218-8-8v-32c0-4.421874 3.574218-8 8-8 4.421874 0 8 3.578126 8 8v32c0 4.425782-3.578126 8-8 8zm0 0"/><path d="m112.492188 360.007812h-56c-4.425782 0-8-3.574218-8-8 0-4.421874 3.574218-8 8-8h56c4.421874 0 8 3.578126 8 8 0 4.425782-3.578126 8-8 8zm0 0"/><path d="m120.492188 328.007812h-72c-4.425782 0-8-3.574218-8-8 0-4.421874 3.574218-8 8-8h72c4.421874 0 8 3.578126 8 8 0 4.425782-3.578126 8-8 8zm0 0"/><path d="m120.492188 328.007812c-3.351563 0-6.472657-2.121093-7.585938-5.472656l-8-24c-1.398438-4.191406.867188-8.726562 5.058594-10.121094 4.230468-1.414062 8.71875.867188 10.121094 5.058594l8 24c1.398437 4.191406-.867188 8.726563-5.058594 10.121094-.847656.277344-1.703125.414062-2.535156.414062zm0 0"/><path d="m48.492188 328.007812c-.832032 0-1.6875-.136718-2.527344-.414062-4.183594-1.394531-6.457032-5.921875-5.058594-10.121094l8-24c1.402344-4.183594 5.898438-6.472656 10.121094-5.058594 4.183594 1.394532 6.457031 5.921876 5.058594 10.121094l-8 24c-1.121094 3.351563-4.242188 5.472656-7.59375 5.472656zm0 0"/><path d="m112.492188 304.007812h-56c-4.425782 0-8-3.574218-8-8 0-4.421874 3.574218-8 8-8h56c4.421874 0 8 3.578126 8 8 0 4.425782-3.578126 8-8 8zm0 0"/><path d="m304.539062 336.007812h-31.949218c-4.425782 0-8-3.574218-8-8 0-4.421874 3.574218-8 8-8h31.949218c4.425782 0 8 3.578126 8 8 0 4.425782-3.574218 8-8 8zm0 0"/><path d="m184.492188 344h-31.984376c-4.421874 0-8-3.574219-8-8s3.578126-8 8-8h31.984376c4.421874 0 8 3.574219 8 8s-3.578126 8-8 8zm0 0"/><path d="m216.492188 319.984375h-63.984376c-4.421874 0-8-3.578125-8-8 0-4.425781 3.578126-8 8-8h63.984376c4.421874 0 8 3.574219 8 8 0 4.421875-3.578126 8-8 8zm0 0"/><path d="m184.492188 464.007812h-31.984376c-4.421874 0-8-3.574218-8-8 0-4.421874 3.578126-8 8-8h31.984376c4.421874 0 8 3.578126 8 8 0 4.425782-3.578126 8-8 8zm0 0"/><path d="m216.492188 439.992188h-63.984376c-4.421874 0-8-3.578126-8-8 0-4.425782 3.578126-8 8-8h63.984376c4.421874 0 8 3.574218 8 8 0 4.421874-3.578126 8-8 8zm0 0"/><path d="m360.492188 271.984375h-312c-4.425782 0-8-3.578125-8-8 0-4.425781 3.574218-8 8-8h312c4.421874 0 8 3.574219 8 8 0 4.421875-3.578126 8-8 8zm0 0"/><path d="m360.492188 391.992188h-312c-4.425782 0-8-3.578126-8-8 0-4.425782 3.574218-8 8-8h312c4.421874 0 8 3.574218 8 8 0 4.421874-3.578126 8-8 8zm0 0"/><path d="m352.570312 320.007812h-16c-4.421874 0-8-3.574218-8-8 0-4.421874 3.578126-8 8-8h16c4.425782 0 8 3.578126 8 8 0 4.425782-3.574218 8-8 8zm0 0"/><path d="m352.578125 344.007812c-2.582031 0-5.125-1.246093-6.664063-3.558593l-16-24c-2.453124-3.679688-1.460937-8.640625 2.21875-11.097657 3.6875-2.449218 8.648438-1.464843 11.09375 2.214844l16 24c2.457032 3.679688 1.464844 8.640625-2.214843 11.097656-1.367188.902344-2.910157 1.34375-4.433594 1.34375zm0 0"/><path d="m352.570312 344.007812h-16c-4.421874 0-8-3.574218-8-8 0-4.421874 3.578126-8 8-8h16c4.425782 0 8 3.578126 8 8 0 4.425782-3.574218 8-8 8zm0 0"/><path d="m56.492188 479.984375c-4.425782 0-8-3.578125-8-8v-32c0-4.425781 3.574218-8 8-8 4.421874 0 8 3.574219 8 8v32c0 4.421875-3.578126 8-8 8zm0 0"/><path d="m112.492188 479.984375c-4.425782 0-8-3.578125-8-8v-32c0-4.425781 3.574218-8 8-8 4.421874 0 8 3.574219 8 8v32c0 4.421875-3.578126 8-8 8zm0 0"/><path d="m112.492188 479.984375h-56c-4.425782 0-8-3.578125-8-8 0-4.425781 3.574218-8 8-8h56c4.421874 0 8 3.574219 8 8 0 4.421875-3.578126 8-8 8zm0 0"/><path d="m120.492188 447.984375h-72c-4.425782 0-8-3.578125-8-8 0-4.425781 3.574218-8 8-8h72c4.421874 0 8 3.574219 8 8 0 4.421875-3.578126 8-8 8zm0 0"/><path d="m120.492188 447.984375c-3.351563 0-6.472657-2.121094-7.585938-5.472656l-8-24c-1.398438-4.191407.867188-8.726563 5.058594-10.121094 4.230468-1.40625 8.71875.867187 10.121094 5.058594l8 24c1.398437 4.191406-.867188 8.726562-5.058594 10.117187-.847656.28125-1.703125.417969-2.535156.417969zm0 0"/><path d="m48.492188 447.984375c-.832032 0-1.6875-.136719-2.527344-.417969-4.183594-1.390625-6.457032-5.917968-5.058594-10.117187l8-24c1.402344-4.183594 5.898438-6.464844 10.121094-5.058594 4.183594 1.394531 6.457031 5.921875 5.058594 10.121094l-8 24c-1.121094 3.351562-4.242188 5.472656-7.59375 5.472656zm0 0"/><path d="m112.492188 423.984375h-56c-4.425782 0-8-3.578125-8-8 0-4.425781 3.574218-8 8-8h56c4.421874 0 8 3.574219 8 8 0 4.421875-3.578126 8-8 8zm0 0"/><path d="m304.539062 455.984375h-31.949218c-4.425782 0-8-3.578125-8-8 0-4.425781 3.574218-8 8-8h31.949218c4.425782 0 8 3.574219 8 8 0 4.421875-3.574218 8-8 8zm0 0"/><path d="m352.570312 439.984375h-16c-4.421874 0-8-3.578125-8-8 0-4.425781 3.578126-8 8-8h16c4.425782 0 8 3.574219 8 8 0 4.421875-3.574218 8-8 8zm0 0"/><path d="m352.578125 463.984375c-2.582031 0-5.125-1.25-6.664063-3.558594l-16-24c-2.453124-3.683593-1.460937-8.640625 2.21875-11.097656 3.6875-2.457031 8.648438-1.464844 11.09375 2.214844l16 24c2.457032 3.679687 1.464844 8.640625-2.214843 11.097656-1.367188.902344-2.910157 1.34375-4.433594 1.34375zm0 0"/><path d="m352.570312 463.984375h-16c-4.421874 0-8-3.578125-8-8 0-4.425781 3.578126-8 8-8h16c4.425782 0 8 3.574219 8 8 0 4.421875-3.574218 8-8 8zm0 0"/><path d="m288.539062 223.992188h-80.0625c-4.425781 0-8-3.578126-8-8 0-4.425782 3.574219-8 8-8h80.0625c4.425782 0 8 3.574218 8 8 0 4.421874-3.574218 8-8 8zm0 0"/></svg>